<svg width="45" height="45" viewBox="0 0 45 45" fill="none" xmlns="http://www.w3.org/2000/svg">
<path d="M7.5 0C3.38758 0 0 3.38758 0 7.5V37.5C0 41.6124 3.38758 45 7.5 45H37.5C41.6124 45 45 41.6124 45 37.5V7.5C45 3.38758 41.6124 0 37.5 0H7.5ZM7.5 5H37.5C38.9126 5 40 6.08742 40 7.5V37.5C40 38.9126 38.9126 40 37.5 40H7.5C6.08742 40 5 38.9126 5 37.5V7.5C5 6.08742 6.08742 5 7.5 5ZM9.25293 10L19.1064 24.082L9.76562 35H13.0957L20.6006 26.2109L26.7432 35H36.3428L25.8789 20.0244L34.4336 10H31.1572L24.3994 17.9004L18.8818 10H9.25293ZM13.916 12.4707H17.6318L31.709 32.5293H27.9688L13.916 12.4707Z" fill="white" fill-opacity="0.7"/>
</svg>
