<svg width="592" height="321" viewBox="0 0 592 321" fill="none" xmlns="http://www.w3.org/2000/svg">
<path d="M559.63 30.7763C565.204 20.2714 567.763 19.3985 585.726 22.0943C585.867 23.8943 586.017 25.7981 586.181 29.0289C586.196 30.3559 586.489 31.2427 586.277 31.8881C586.22 33.4202 586.376 34.307 586.107 35.9843C579.815 37.4192 573.948 38.0637 569.016 38.6055C572.883 44.7695 577.299 50.115 579.835 56.2389C583.919 66.1017 581.037 75.6309 575.385 84.7692C573.83 86.3222 572.72 87.6272 570.962 89.1585C566.797 91.0006 563.279 92.6165 559.761 94.2323C551.536 94.5944 543.312 95.2022 535.087 95.2099C531.268 95.2134 527.777 94.9527 524.926 100.096C525.168 107.83 529.899 109.091 535.154 109.132C545.785 109.215 556.418 109.032 567.842 109.258C572.392 110.489 576.15 111.421 580.254 112.786C582.214 114.084 583.829 114.949 585.531 116.357C586.332 117.686 587.045 118.473 587.873 119.802C588.749 122.148 589.511 123.951 590.273 125.755C590.676 127.657 591.079 129.559 591.493 133.075C591.598 136.035 591.691 137.382 591.328 139.19C590.687 140.881 590.502 142.112 589.96 143.967C588.528 146.724 587.452 148.858 585.816 151.301C577.092 157.878 567.635 160.675 557.571 161.348C549.294 161.901 540.977 161.858 532.678 162.079C523.56 159.603 513.376 159.832 505.708 150.691C504.282 147.488 503.612 145.35 502.941 143.211C503.056 142.362 503.172 141.513 503.307 139.369C503.417 136.681 503.506 135.289 503.596 133.896C504.323 132.926 505.051 131.956 506.39 130.206C507.393 128.905 507.783 128.383 508.882 127.708C512.382 126.25 515.171 124.944 519.581 122.881C507.643 118.822 505.876 111.037 508.826 101.035C512.126 98.4423 514.972 96.2398 518.403 93.9784C520.069 93.5015 521.149 93.0835 523.148 92.3108C519.704 89.8372 517.069 87.9441 514.14 85.4953C512.863 83.6585 511.88 82.3773 510.702 80.4592C509.578 77.8313 508.65 75.8406 507.883 73.0949C507.712 70.8632 507.381 69.3861 507.175 67.171C507.28 64.9451 507.261 63.4573 507.608 61.2633C508.229 58.9926 508.483 57.4281 509.052 55.3637C509.846 53.3622 510.326 51.8609 511.24 49.9354C513.123 47.6113 514.572 45.7116 516.599 43.599C519.353 41.6409 521.528 39.8956 524.298 38.0325C526.348 37.3706 527.805 36.8267 530.051 36.1164C532.423 35.6839 534.004 35.4175 536.508 35.1951C544.669 35.239 551.908 35.239 559.63 35.239C559.63 33.8804 559.63 32.3284 559.63 30.7763ZM569.581 141.04C569.602 140.195 569.623 139.35 570.243 137.855C570.056 136.543 569.87 135.231 569.784 132.29C566.754 130.565 563.787 127.498 560.682 127.351C548.498 126.773 536.27 127.114 524.198 127.114C522.46 130.889 521.113 133.814 519.411 137.511C522.395 140.379 524.902 144.946 527.97 145.36C540.322 147.026 552.938 148.932 566.036 143.529C566.837 142.898 567.637 142.267 569.581 141.04ZM529.257 59.1756C527.088 66.0551 526.658 72.5385 534.342 78.6071C536.19 79.2898 537.988 80.2135 539.896 80.6161C552.973 83.3764 560.257 77.3751 560.012 64.1572C559.859 55.942 557.38 52.552 550.02 50.4912C541.633 48.1424 534.275 50.9578 529.257 59.1756Z" fill="#F8F9FD"/>
<path d="M305.064 55.7721C289.714 55.677 284.436 60.7866 284.34 75.3178C284.225 92.5781 284.313 109.84 284.313 127.626C277.5 127.626 271.289 127.626 264.191 127.626C264.01 125.55 263.614 123.043 263.602 120.534C263.539 107.208 263.714 93.8789 263.498 80.5562C263.419 75.6259 262.857 70.6371 261.88 65.803C260.356 58.255 255.291 54.9271 247.23 55.5075C238.771 56.1166 232.498 61.3245 232.391 68.6619C232.153 84.9832 232.314 101.31 232.313 117.635C232.312 120.888 232.313 124.14 232.313 127.632C224.641 127.632 217.852 127.632 210.656 127.632C210.656 98.2725 210.656 69.438 210.656 40.0175C217.77 40.0175 224.581 40.0175 232.003 40.0175C232.181 43.5692 232.356 47.0508 232.635 52.6272C239.379 42.2498 246.946 36.4889 258.444 37.3147C269.938 38.1402 277.783 43.5912 282.727 54.6926C287.319 45.952 293.26 39.7455 302.329 38.1619C319.381 35.1845 334.597 39.2301 337.091 63.4877C339.251 84.5048 337.54 105.92 337.54 127.653C329.996 127.653 323.205 127.653 315.572 127.653C315.572 109.743 315.636 92.173 315.515 74.6041C315.493 71.3452 314.947 68.0442 314.255 64.8463C313.271 60.298 310.588 57.095 305.064 55.7721Z" fill="#F8F8F8"/>
<path d="M282.74 302.405C276.638 311.454 268.625 316.235 258.778 318.392C235.65 323.458 215.49 318.999 198.881 300.099C203.951 295.377 208.767 290.894 214.017 286.005C223.753 296.114 235.012 301.585 248.77 299.958C252.29 299.542 256.039 298.507 259.026 296.682C264.711 293.209 266.457 287.413 265.461 281.053C264.549 275.226 260.532 271.694 255.096 270.111C251.311 269.009 247.279 268.787 243.404 267.953C237.261 266.629 231.002 265.59 225.069 263.6C210.49 258.711 202.82 248.535 202.242 234.254C201.661 219.906 209.144 207.905 222.516 201.741C243.486 192.075 270.102 197.377 284.856 213.575C280.623 218.993 276.422 224.369 271.839 230.235C262.387 219.25 251.52 216.3 239.294 217.609C229.443 218.664 225.306 223.498 225.589 232.491C225.771 238.296 228.581 242.035 233.88 243.551C239.913 245.276 246.131 246.351 252.258 247.75C256.133 248.636 260.081 249.326 263.84 250.573C284.178 257.32 292.645 273.93 286.294 294.512C285.518 297.026 284.226 299.382 282.74 302.405Z" fill="#F8F8F8"/>
<path d="M61.8038 28.9325C42.9335 24.6308 33.5939 31.5493 28.4733 40.8869C22.6734 51.4629 22.4845 85.6902 28.0954 96.4816C36.5501 112.742 59.8857 115.278 71.9182 101.144C74.243 98.4129 76.0158 95.2119 78.4265 91.6636C84.2602 95.1333 89.8643 98.4664 95.4313 101.777C86.0123 122.344 71.1899 131.065 47.6799 130.16C27.57 129.386 11.7346 117.888 5.03447 98.3339C-2.47422 76.4194 -1.63911 54.6102 7.91198 33.4107C13.0798 21.94 21.8595 13.7653 33.8683 10.1493C54.4393 3.95546 79.9724 5.80031 93.6191 30.5318C94.2517 31.6784 94.5319 33.0194 95.162 34.7927C89.3737 37.9811 83.6125 41.1544 78.5545 43.9406C72.9092 38.7866 67.7178 34.0471 61.8038 28.9325Z" fill="#F8F8F8"/>
<path d="M355.493 228.191C376.64 235.398 386.394 248.705 386.21 270.108C386.145 277.668 385.98 285.536 383.927 292.709C378.855 310.432 364.677 320.095 345.744 320.162C326.539 320.23 312.782 310.889 307.006 293.337C302.854 280.722 302.829 267.806 306.604 255.131C311.712 237.978 325.712 227.759 343.775 227.469C347.415 227.411 351.063 227.864 355.493 228.191ZM364.253 278.415C364.006 272.127 364.341 265.748 363.376 259.573C361.936 250.356 355.483 245.605 345.79 245.485C335.835 245.363 329.136 249.639 327.945 259.036C326.803 268.051 326.871 277.398 327.816 286.453C328.993 297.73 334.842 302.192 345.665 302.105C356.203 302.021 361.901 296.999 363.646 286.178C363.961 284.22 364.055 282.226 364.253 278.415Z" fill="#F8F8F8"/>
<path d="M173.354 123.399C153.603 134.516 132.357 131.957 118.936 117.386C113.318 111.286 110.423 103.881 109.195 95.9423C106.751 80.1346 107.267 64.5733 117.916 51.4486C129.3 37.4187 144.755 34.8471 161.292 38.8532C177.515 42.7832 186.714 54.4469 189.413 70.3657C190.888 79.0706 190.466 88.3182 189.48 97.1628C188.293 107.808 182.378 116.328 173.354 123.399ZM168.254 81.0042C168.026 77.3702 168.123 73.6798 167.505 70.1132C165.873 60.6984 159.941 55.7887 150.35 55.4858C139.886 55.1555 133.112 59.4781 131.893 69.4627C130.751 78.8105 130.911 88.4813 131.855 97.8737C132.815 107.429 139.224 111.987 149.092 112.106C159.305 112.229 165.819 107.389 167.441 97.7324C168.258 92.8692 168.017 87.8286 168.254 81.0042Z" fill="#F8F8F8"/>
<path d="M402.245 254.87C405.067 249.56 407.301 244.649 410.662 240.697C422.081 227.267 437.242 224.974 453.273 228.833C469.411 232.717 478.702 244.379 481.378 260.248C482.896 269.251 482.88 278.958 481.282 287.944C478.455 303.842 468.574 314.532 451.773 319.479C450.763 319.721 450.105 319.974 449.203 319.918C443.495 319.956 438.689 320.05 433.884 320.144C409.351 315.159 399.481 294.822 400.312 274.317C400.564 268.1 401.533 261.911 402.245 254.87ZM428.902 249.501C427.129 253.309 424.163 257.014 423.825 260.945C423.072 269.713 422.883 278.677 423.852 287.407C424.985 297.619 431.312 302.176 441.673 302.093C451.785 302.012 458.411 297.053 459.405 287.094C460.287 278.255 460.274 269.189 459.391 260.35C458.438 250.795 452.051 245.528 442.52 245.662C438.392 245.72 434.289 247.506 428.902 249.501Z" fill="#F8F9FD"/>
<path d="M530.008 249.785C524.216 252.186 524.296 257.256 524.298 262.306C524.306 277.291 524.301 292.275 524.301 307.26C524.301 310.526 524.301 313.791 524.301 317.584C516.724 317.584 509.962 317.584 502.719 317.584C502.719 288.247 502.719 259.443 502.719 230.041C509.915 230.041 516.718 230.041 523.882 230.041C524.094 233.594 524.289 236.863 524.568 241.529C531.626 234.384 537.675 226.542 549.149 227.186C555.157 228.475 560.37 229.948 566.604 232.139C568.365 233.363 569.107 233.868 569.848 234.372C572.235 238.907 574.622 243.443 577.347 249.175C578.016 251.64 578.346 252.908 578.677 254.176C578.58 256.29 578.482 258.404 578.38 261.954C578.493 264.285 578.612 265.18 578.731 266.075C578.606 268.589 578.48 271.103 578.285 275.141C578.39 277.73 578.564 278.793 578.738 279.857C578.608 281.211 578.478 282.566 578.378 285.259C578.518 287.045 578.627 287.493 578.737 287.94C578.612 290.664 578.487 293.388 578.55 296.907C578.809 302.754 579.009 307.808 578.877 312.853C578.833 314.531 577.938 316.186 576.828 317.924C576.224 317.996 576.023 318.242 576.023 318.242C569.886 318.242 563.75 318.242 556.181 318.242C556.181 311.648 556.181 305.635 556.004 298.719C555.95 295.067 556.073 292.317 556.169 288.065C556.042 286.099 555.943 285.636 555.843 285.174C555.955 283.787 556.068 282.401 556.182 279.64C556.064 277.326 555.944 276.386 555.825 275.446C555.939 272.847 556.054 270.249 556.217 266.209C556.117 263.833 555.969 262.898 555.822 261.964C555.719 259.62 555.615 257.277 554.948 253.708C553.582 251.381 552.781 250.279 551.594 248.546C543.7 244.31 536.486 243.913 529.909 249.878C529.963 249.882 530.008 249.785 530.008 249.785Z" fill="#F8F9FD"/>
<path d="M426.718 128.596C421.455 128.337 416.192 128.079 409.525 127.751C409.525 104.184 409.525 80.7501 409.328 56.3679C409.362 50.5194 409.594 45.6187 409.873 39.7054C416.548 39.7054 423.301 39.7054 430.883 40.8143C431.711 44.9742 431.711 48.025 431.711 52.1548C435.886 47.5195 439.061 43.9945 442.235 40.4695C444.4 39.6747 446.566 38.8799 450.237 37.8317C458.537 38.5876 465.329 39.597 472.412 41.0507C474.841 43.4011 476.98 45.3075 479.531 47.8684C480.771 49.8149 481.597 51.1067 482.505 53.0045C483.195 55.1235 483.806 56.6366 484.329 58.7885C484.831 61.015 485.419 62.6029 485.848 64.9703C485.815 67.3319 485.941 68.9138 485.891 71.2172C485.829 73.4166 485.942 74.8945 485.88 77.0854C485.824 79.7445 485.945 81.6907 485.841 84.3654C485.771 86.5955 485.926 88.0969 485.908 90.3392C485.84 92.5873 485.947 94.0947 485.851 96.3751C485.792 99.2557 485.934 101.363 485.893 104.402C485.71 112.566 485.71 119.8 485.71 127.546C477.934 127.546 471.173 127.546 463.161 127.546C463.161 119.137 463.161 111.244 463.332 102.589C463.391 99.7538 463.279 97.6824 463.348 94.8748C463.394 92.6331 463.261 91.1276 463.337 88.8778C463.416 86.6106 463.286 85.0879 463.334 82.7661C463.376 80.3306 463.24 78.6941 463.311 76.3965C463.389 73.9138 463.259 72.092 463.286 69.6263C462.848 67.3732 462.254 65.7642 461.68 63.4025C458.851 55.696 452.72 55.845 446.818 56.0872C440.792 56.3345 435.05 57.5586 432.524 64.9982C432.097 66.7576 432.072 68.009 431.813 70.1725C431.75 77.2113 431.922 83.338 431.927 90.2875C431.863 92.2195 431.966 93.3289 431.891 95.2063C431.824 98.0658 431.934 100.157 431.867 103.13C431.69 111.874 431.689 119.738 431.069 127.758C429.206 128.141 427.962 128.369 426.718 128.596Z" fill="#F8F9FD"/>
<path d="M383.667 67.8185C383.667 88.1121 383.667 107.411 383.667 127.447C376.603 127.447 369.851 127.447 362.65 127.447C362.65 98.5861 362.65 69.7334 362.65 39.4042C365.975 39.4042 369.461 39.4043 372.947 39.4043C376.238 39.4043 379.529 39.4042 383.667 39.4042C383.667 49.0311 383.667 57.9274 383.667 67.8185Z" fill="#F3F3F3"/>
<path d="M383.252 22.6671C380.38 24.2386 378.016 25.7051 375.507 26.0237C363.565 27.5393 356.837 18.8312 360.916 7.41588C362.724 2.35558 368.146 -0.557145 374.554 0.0890946C380.79 0.718124 385.092 3.91392 385.435 9.5421C385.686 13.6551 384.332 17.8659 383.252 22.6671Z" fill="#F3F3F3"/>
</svg>
