<svg width="299" height="171" viewBox="0 0 299 171" fill="none" xmlns="http://www.w3.org/2000/svg">
<path d="M7.57593 162.544C8.04443 169.033 4.84375 169.321 0 168.16C0 146.395 0 124.591 0 101.88C10.7336 101.88 21.645 101.114 32.3936 102.108C42.0571 103.001 48.9487 108.944 51.5234 118.686C53.8879 127.634 50.2515 135.768 41.6655 141.869C40.3555 142.8 38.9583 143.608 37.2529 144.696C41.665 152.404 45.9106 159.822 50.3594 167.596C45.4458 169.803 42.2917 169.034 39.9312 164.749C36.4128 158.363 32.6995 152.085 29.1028 145.819C22.0322 145.819 15.4314 145.819 7.5769 145.819C7.5769 151.249 7.5769 156.459 7.57593 162.544ZM36.5845 111.077C27.5552 106.201 18.0371 108.367 8.2876 108.51C8.2876 118.874 8.2876 128.609 8.2876 139.13C14.4084 139.13 19.9768 139.202 25.5427 139.112C32.5994 138.998 38.627 136.828 41.8354 129.935C45.0623 123.002 43.2068 117.071 36.5845 111.077Z" fill="#E6E6E6"/>
<path d="M134.249 23.512C138.523 25.9065 142.062 28.1692 146.214 30.8229C149.925 26.3644 154.933 23.037 161.797 23.069C172.408 23.1184 179.053 28.4351 179.602 39.0858C180.167 50.0421 179.728 61.05 179.728 72.6602C177.461 72.8884 175.336 73.1024 171.97 73.4413C171.97 66.9852 171.983 61.0984 171.967 55.2117C171.953 50.2126 172.152 45.197 171.812 40.219C171.38 33.8784 168.495 30.6276 163.157 29.6467C156.962 28.5081 151.6 30.981 149.403 36.848C148.161 40.1659 147.839 43.954 147.739 47.5481C147.508 55.8235 147.666 64.1097 147.666 72.9958C145.044 73.1199 143.187 73.2078 139.829 73.3667C139.829 66.204 139.83 59.3639 139.828 52.5237C139.826 48.8572 139.978 45.182 139.779 41.5261C139.364 33.9148 135.743 29.915 129.166 29.4935C122.333 29.0555 116.919 33.1477 115.887 40.3019C115.227 44.8833 115.521 49.6093 115.479 54.2714C115.427 60.2274 115.467 66.1843 115.467 72.7607C112.695 72.7607 110.598 72.7607 107.99 72.7607C107.99 56.5325 107.99 40.3536 107.99 22.0665C111.604 24.543 113.904 26.1188 116.741 28.0636C121.135 24.4572 126.851 22.1831 134.249 23.512Z" fill="#E6E6E6"/>
<path d="M260.017 165.964C258.122 166.893 256.947 167.536 255.692 167.921C242.847 171.858 231.149 167.762 225.565 157.414C219.81 146.75 221.933 131.914 230.299 124.327C239.143 116.307 252.725 116.055 263.259 123.726C264.283 124.472 265.255 125.287 266.798 126.5C267.446 123.787 267.935 121.739 268.494 119.398C270.552 119.398 272.453 119.398 274.847 119.398C274.847 135.505 274.847 151.282 274.847 167.079C268.747 168.753 268.747 168.753 266.965 160.694C264.734 162.426 262.716 163.992 260.017 165.964ZM251.923 125.204C249.935 125.203 247.914 124.97 245.963 125.242C236.223 126.595 230.515 133.696 230.655 144.094C230.792 154.344 236.746 161.336 246.506 162.705C255.432 163.957 263.606 158.632 266.39 149.751C269.67 139.288 265.007 130.457 251.923 125.204Z" fill="#E6E6E6"/>
<path d="M32.8313 38.1902C37.261 38.7614 43.2629 36.0055 41.4897 44.5791C31.2654 44.5791 21.0781 44.5791 9.78345 44.5791C9.78345 54.3719 9.78345 63.5012 9.78345 73.0159C6.47461 73.0159 4.27661 73.0159 1.72632 73.0159C1.72632 50.9008 1.72632 29.1007 1.72632 6.90552C17.0325 6.90552 31.8838 6.90552 47.0999 6.90552C47.2175 8.81006 47.3145 10.38 47.4695 12.887C34.916 12.887 22.769 12.887 10.0959 12.887C10.0959 21.5736 10.0959 29.3597 10.0959 38.1902C17.5256 38.1902 24.7375 38.1902 32.8313 38.1902Z" fill="#E6E6E6"/>
<path d="M83.6061 146.013C78.685 146.013 74.7629 146.013 70.7734 146.013C72.1164 163.871 87.2355 168.411 106.365 157.603C108.62 159.192 110.933 160.806 107.717 163.609C99.1125 171.11 81.0304 171.336 71.174 164.116C62.1982 157.541 59.0885 143.931 63.9521 132.508C68.8258 121.061 82.3256 115.555 96.0392 119.42C106.968 122.501 112.277 132.036 110.256 146.013C101.793 146.013 93.1989 146.013 83.6061 146.013ZM84.6574 140.911C90.703 140.77 96.7487 140.629 102.943 140.484C100.897 128.274 96.1112 123.635 87.0807 123.902C77.5666 124.184 72.2502 129.535 71.1281 140.911C75.0502 140.911 78.9137 140.911 84.6574 140.911Z" fill="#E6E6E6"/>
<path d="M131.906 149.432C131.906 156.002 131.906 161.627 131.906 167.893C129.418 168.173 127.321 168.409 124.505 168.726C124.505 152.357 124.505 136.538 124.505 120.02C129.431 116.88 131.214 120.214 132.177 125.585C138.346 119.812 145.185 117.27 153.277 118.674C162.602 120.292 167.599 125.195 167.958 134.627C168.374 145.545 168.055 156.49 168.055 167.731C163.693 169.339 160.669 169.608 160.657 163.847C160.638 155.209 160.971 146.543 160.396 137.94C159.658 126.927 151.956 122.118 141.613 125.585C135.875 127.507 133.341 132.126 132.361 137.555C131.719 141.111 132.025 144.837 131.906 149.432Z" fill="#E6E6E6"/>
<path d="M189.283 154.008C189.272 144.212 189.272 135.277 189.272 126.215C185.136 125.304 181.401 124.608 177.785 123.518C177.348 123.386 177.552 121.126 177.461 119.882C189.439 118.04 189.439 118.04 190.119 104.07C191.899 103.845 193.767 103.608 196.41 103.274C196.67 106.212 196.916 108.723 197.107 111.237C197.28 113.518 197.391 115.803 197.578 118.869C203.122 118.869 208.298 118.869 213.521 118.869C213.1 124.725 213.1 124.725 197.515 125.385C197.515 136.099 197.216 146.924 197.793 157.702C197.896 159.624 201.372 162.223 203.763 162.949C206.771 163.862 210.265 163.169 215.379 163.169C213.979 165.737 213.458 168.313 212.202 168.743C200.02 172.92 191.292 167.506 189.283 154.008Z" fill="#E6E6E6"/>
<path d="M298.195 137.473C298.195 148.078 298.195 157.686 298.195 167.408C293.324 169.629 291.008 168.755 291.027 163.422C291.089 146.471 291.05 129.519 291.049 112.567C291.049 106.963 291.049 101.36 291.049 95.4255C293.678 95.4255 295.579 95.4255 298.195 95.4255C298.195 109.314 298.195 122.896 298.195 137.473Z" fill="#FDFDFE"/>
<path d="M87.9269 73.3875C82.1088 73.3898 83.4731 69.6055 83.4538 66.9637C83.3507 52.7203 83.4059 38.476 83.4062 24.2318C83.4064 16.3082 83.4062 8.38477 83.4062 0C86.1181 0 88.3026 0 91.3415 0C91.3415 7.19507 91.3415 14.103 91.3415 21.011C91.3415 35.9176 91.4213 50.8251 91.267 65.7301C91.2397 68.3778 92.7787 71.8663 87.9269 73.3875Z" fill="#E6E6E6"/>
<path d="M59.2708 51.4243C59.271 41.8085 59.271 33.1714 59.271 24.0928C61.9856 24.0928 64.1865 24.0928 66.865 24.0928C66.865 40.2367 66.865 56.1133 66.865 72.7758C64.7441 72.9945 62.637 73.2118 59.2708 73.5588C59.2708 66.1018 59.2708 59.2526 59.2708 51.4243Z" fill="#E6E6E6"/>
<path d="M59.3978 4.07942C61.1998 3.31453 62.9506 2.3647 63.6493 2.87007C65.557 4.24935 68.3326 6.26631 68.3014 7.98604C68.2684 9.80745 65.535 12.8234 63.7298 13.021C61.9086 13.2202 59.4442 10.879 57.9462 9.08064C57.3304 8.34139 58.506 6.11067 59.3978 4.07942Z" fill="#E6E6E6"/>
</svg>
