<svg width="1388" height="402" viewBox="0 0 1388 402" fill="none" xmlns="http://www.w3.org/2000/svg">
<path d="M10.895 361.866C7.61627 361.625 4.3377 361.385 0.384455 361.094C0.384455 300.908 0.384455 240.848 0.384455 179.997C18.4865 179.997 36.3124 179.997 54.1382 179.997C54.2686 179.49 54.399 178.982 54.5292 178.475C51.414 177.011 48.2649 175.615 45.189 174.072C24.4481 163.672 8.48101 148.932 1.60601 125.962C1.31964 125.005 0.714166 124.059 0.720636 123.111C0.876275 100.518 -1.65351 77.4769 1.94 55.4363C7.48016 21.4574 36.5607 0.535218 72.8317 0.348633C116.817 0.122376 160.804 0.292116 204.791 0.291505C250.11 0.290895 295.43 0.291321 340.749 0.291321C344.38 0.291321 348.012 0.291321 352.342 0.291321C352.342 60.9672 352.342 121.075 352.342 181.625C334.129 181.625 316.188 181.625 298.247 181.625C298.087 182.046 297.927 182.467 297.767 182.887C299.886 183.992 301.956 185.205 304.132 186.183C318.034 192.433 330.08 201.107 339.487 213.213C348.35 224.619 353.217 237.412 353.065 252.021C352.933 264.682 352.924 277.348 353.058 290.009C353.51 332.669 318.202 361.923 280.54 361.653C194.571 361.037 108.594 361.496 20.9481 361.493C16.4822 361.601 13.6887 361.733 10.895 361.866Z" fill="#FEFEFE"/>
<path d="M579.385 177.176C579.533 160.191 579.76 143.206 579.81 126.22C579.884 101.557 579.644 76.8925 579.886 52.2318C580.109 29.5565 594.26 11.0308 615.869 4.90657C620.283 3.65584 625.047 3.14064 629.65 3.13637C730.968 3.04195 832.287 3.06655 933.605 3.08309C934.596 3.08321 935.586 3.28011 937.295 3.46144C937.295 65.1755 937.295 126.914 937.295 189.922C921.515 187.495 906.013 185.821 890.852 182.563C877.903 179.78 865.026 176 852.679 171.213C826.842 161.194 808.98 142.603 798.267 117.102C791.134 100.122 787.034 82.3258 784.035 64.2277C783.52 61.1232 782.675 58.0735 780.464 55.2515C780.464 100.707 780.464 146.162 780.464 192.895C743.676 192.895 707.406 192.895 671.135 192.895C699.41 199.722 727.103 206.683 748.091 228.382C768.993 249.992 775.949 277.674 782.332 306.083C782.332 269.657 782.332 233.232 782.332 195.81C836.455 195.81 889.352 195.81 943.96 195.812C948.366 195.706 951.061 195.599 954.34 195.655C955.31 195.702 955.697 195.586 956.084 195.47C958.255 195.595 960.425 195.719 963.776 196.38C963.967 199.8 962.978 202.683 961.988 205.566C955.712 217.027 954.78 229.637 954.694 242.252C954.424 281.513 954.474 320.776 953.228 360.804C949.41 361.711 946.764 361.852 943.192 361.804C938.6 361.593 934.933 361.551 931.267 361.551C832.603 361.547 733.938 361.564 635.273 361.502C629.972 361.499 624.599 361.278 619.385 360.405C606.21 358.199 596.555 350.185 588.026 339.768C582.088 330.226 579.715 320.46 579.764 309.839C579.913 277.247 579.854 244.654 579.796 212.062C579.775 200.433 579.528 188.805 579.385 177.176Z" fill="#FEFEFE"/>
<path d="M1366.62 361.986C1359.64 361.884 1352.65 361.698 1345.67 361.695C1294.01 361.671 1242.36 361.684 1190.7 361.685C1188.14 361.685 1185.58 361.685 1182.62 361.685C1182.62 240.889 1182.62 121.099 1182.62 0.798828C1237.93 0.798828 1292.76 0.798828 1348.83 0.798828C1348.83 65.5099 1348.83 129.939 1348.83 195.138C1354.97 195.138 1359.9 195.138 1366.5 195.151C1370.82 195.02 1373.48 194.876 1376.14 194.732C1379.74 195.028 1383.34 195.324 1387.35 195.654C1387.35 250.647 1387.35 305.377 1387.35 360.982C1384.2 361.199 1381.04 361.418 1376.23 361.627C1371.94 361.741 1369.28 361.863 1366.62 361.986Z" fill="#FEFEFE"/>
<path d="M376.445 362.084C375.674 361.112 374.375 360.21 374.235 359.154C373.887 356.533 374.04 353.841 374.04 351.178C374.036 237.948 374.036 124.717 374.036 11.4871C374.036 8.17731 374.036 4.86749 374.036 0.925293C435.294 0.925293 496.021 0.925293 557.709 0.925293C557.709 59.2691 557.709 117.131 557.712 176.807C557.703 235.927 557.724 293.234 557.606 350.54C557.598 354.359 556.538 358.177 555.044 361.863C500.468 361.713 446.815 361.689 393.162 361.695C390.842 361.695 388.522 361.973 385.399 361.937C381.879 361.863 379.162 361.974 376.445 362.084Z" fill="#FDFDFE"/>
<path d="M976.966 175.498C977.14 171.854 977.464 168.21 977.467 164.566C977.5 113.598 977.489 62.6308 977.489 11.6633C977.489 8.37469 977.489 5.08606 977.489 1.95782C985.436 -0.0826448 1142.2 -0.773014 1159.9 1.07623C1160.11 3.13525 1160.53 5.33691 1160.53 7.53869C1160.56 122.798 1160.57 238.058 1160.44 353.318C1160.44 356.304 1163.06 361.228 1155.1 361.719C1150.65 361.816 1147.84 361.929 1144.05 361.846C1088.24 361.651 1033.41 361.651 977.58 361.651C977.58 357.265 977.58 353.699 977.58 350.132C977.58 295.555 977.591 240.977 977.553 186.399C977.551 182.765 977.17 179.132 976.966 175.498Z" fill="#FEFEFE"/>
<path d="M10.8208 362.778C13.6889 361.733 16.4825 361.601 19.9279 361.657C20.5798 371.434 20.5798 381.021 20.5798 391.211C24.6314 391.459 27.5575 391.793 30.4836 391.794C117.424 391.816 204.365 391.912 291.305 391.745C323.906 391.682 349.67 370.524 355.324 339.621C356.275 334.427 356.327 329.018 356.335 323.708C356.407 277.074 356.376 230.439 356.375 183.804C356.375 182.15 356.375 180.497 356.375 177.919C359.373 177.563 362.108 177.238 364.93 176.902C365.504 178.467 366.11 179.349 366.111 180.231C366.154 230.863 366.626 281.5 365.983 332.124C365.522 368.472 333.887 399.684 297.335 401.47C294.676 401.6 292.007 401.576 289.343 401.576C200.07 401.583 110.798 401.583 21.5261 401.585C18.5527 401.585 15.5792 401.585 11.2611 401.585C11.0855 394.953 10.8598 388.816 10.7783 382.677C10.6943 376.349 10.7511 370.02 10.8208 362.778Z" fill="#0044E7"/>
<path d="M578.736 177.562C579.528 188.805 579.775 200.433 579.796 212.062C579.854 244.654 579.913 277.247 579.764 309.839C579.715 320.46 582.088 330.226 587.742 340.709C584.131 371.135 607.253 392.31 634.151 392.144C734.262 391.523 834.38 391.903 934.495 391.876C937.386 391.876 940.276 391.536 944.118 391.294C944.118 381.13 944.118 371.561 944.118 361.993C946.764 361.852 949.41 361.711 952.839 361.685C953.623 374.697 953.623 387.595 953.623 401.002C950.226 401.267 947.658 401.643 945.09 401.644C840.488 401.667 735.886 401.73 631.285 401.597C605.938 401.564 585.271 385.485 579.185 361.521C577.969 356.733 577.405 351.653 577.393 346.706C577.266 292.073 577.3 237.44 577.335 182.808C577.336 181.188 577.825 179.568 578.736 177.562Z" fill="#0044E7"/>
<path d="M1366.56 362.89C1369.28 361.864 1371.94 361.741 1375.38 361.809C1376.17 374.646 1376.17 387.293 1376.17 401.401C1305.95 402.07 1236.19 401.624 1165.96 401.769C1165.96 326.623 1165.96 252.406 1165.96 177.595C1168.99 177.595 1171.74 177.595 1175.44 177.595C1175.44 249.033 1175.44 319.87 1175.44 391.35C1239.23 391.35 1302.06 391.35 1365.58 391.35C1367.52 382.221 1366.11 372.956 1366.56 362.89Z" fill="#0044E7"/>
<path d="M973.196 177.1C974.728 180.233 975.912 183.406 975.919 186.581C976.031 242.563 975.999 298.545 975.999 354.527C975.999 366.484 975.999 378.442 975.999 390.39C982.915 392.466 1127.66 393.229 1143.94 391.2C1146.01 382.259 1144.54 372.998 1144.95 362.94C1147.84 361.929 1150.65 361.816 1154.13 361.891C1154.79 375.014 1154.79 387.95 1154.79 401.31C1091.65 401.31 1029.44 401.31 965.861 401.31C965.809 336.485 965.757 271.971 965.734 205.688C965.284 201.095 964.806 198.271 964.328 195.446C965.11 189.704 965.892 183.962 966.745 177.698C968.514 177.521 970.406 177.33 973.196 177.1Z" fill="#0044E7"/>
<path d="M376.388 362.984C379.162 361.974 381.879 361.863 385.438 362.835C386.281 373.109 386.281 382.299 386.281 391.372C443.548 391.372 499.341 391.372 555.967 391.372C555.967 381.162 555.967 371.579 555.967 361.995C556.538 358.177 557.598 354.36 557.606 350.54C557.724 293.234 557.703 235.927 557.896 177.82C560.342 177.181 562.606 177.341 565.365 177.535C565.365 252.02 565.365 326.061 565.365 400.065C558.124 402.198 387.78 402.596 376.33 400.316C376.33 388.337 376.33 376.111 376.388 362.984Z" fill="#0044E7"/>
<path d="M1376.21 193.892C1373.48 194.876 1370.82 195.021 1367.41 194.957C1366.64 189.207 1366.64 183.666 1366.64 177.62C1369.9 177.422 1372.41 177.27 1376.28 177.035C1376.28 182.733 1376.28 187.892 1376.21 193.892Z" fill="#0044E7"/>
<path d="M953.756 195.492C951.061 195.599 948.365 195.706 944.881 195.625C944.091 189.896 944.091 184.354 944.091 177.919C947.35 177.919 950.273 177.919 953.94 177.919C953.94 182.829 953.94 187.357 953.901 193.2C953.862 194.516 953.756 195.492 953.756 195.492Z" fill="#0044E7"/>
<path d="M964.286 195.454C964.807 198.27 965.285 201.095 965.588 204.765C964.651 205.602 963.89 205.595 962.559 205.577C962.977 202.683 963.967 199.8 964.581 196.229C964.206 195.542 964.243 195.463 964.286 195.454Z" fill="#0E0E10"/>
<path d="M954.339 195.655C953.755 195.492 953.862 194.516 954.047 194.061C954.829 193.801 955.311 194.151 955.881 195.065C955.696 195.586 955.31 195.702 954.339 195.655Z" fill="#0E0E10"/>
</svg>
