<svg width="45" height="45" viewBox="0 0 45 45" fill="none" xmlns="http://www.w3.org/2000/svg">
<path d="M7.5 0C3.38758 0 0 3.38758 0 7.5V37.5C0 41.6124 3.38758 45 7.5 45H37.5C41.6124 45 45 41.6124 45 37.5V7.5C45 3.38758 41.6124 0 37.5 0H7.5ZM7.5 5H37.5C38.9126 5 40 6.08742 40 7.5V37.5C40 38.9126 38.9126 40 37.5 40H7.5C6.08742 40 5 38.9126 5 37.5V7.5C5 6.08742 6.08742 5 7.5 5ZM22.5 10V27.5C22.5 28.9126 21.4126 30 20 30C18.5874 30 17.5 28.9126 17.5 27.5C17.5 26.0874 18.5874 25 20 25V20C15.8876 20 12.5 23.3876 12.5 27.5C12.5 31.6124 15.8876 35 20 35C24.1124 35 27.5 31.6124 27.5 27.5V18.0811C29.0404 19.1784 30.6478 20 32.5 20V15C32.3817 15 30.6567 14.4523 29.4531 13.4033C28.2496 12.3543 27.5 11.0375 27.5 10H22.5Z" fill="white"/>
</svg>
